# xmcd CD database file
#
# Track frame offsets:
#	150
#	5617
#	30634
#	52809
#	76680
#	95671
#	115689
#	137699
#	157378
#	178436
#	213324
#	237554
#
# Disc length: 3280 seconds
#
# Revision: 0
# Processed by: cddbd v1.5.1PL0 Copyright (c) Steve Scherf et al.
# Submitted via: CDex 1.51
#
DISCID=a00cce0c
DTITLE=Smith, Jocelyn B. - Blue Light and Nylons
DYEAR=1900
DGENRE=Jazz
TTITLE0=Amazing Grace
TTITLE1=It Ain´t Necessarily So
TTITLE2=Lonely House
TTITLE3=Lost in the Stars
TTITLE4=Mack The Knife
TTITLE5=Mon Ami, My Friend
TTITLE6=My Ship
TTITLE7=Sing Me Not A Ballad
TTITLE8=Somebody Loves Me
TTITLE9=Summertime
TTITLE10=The Man I Love
TTITLE11=Wouldn´t You Like To Be On Broadway
EXTD=
EXTT0=
EXTT1=
EXTT2=
EXTT3=
EXTT4=
EXTT5=
EXTT6=
EXTT7=
EXTT8=
EXTT9=
EXTT10=
EXTT11=
PLAYORDER=
